<svg width="105" height="30" viewBox="0 0 105 30" fill="none" xmlns="http://www.w3.org/2000/svg">
<path d="M55.4905 9.93896H58.3472V24.3609H55.4905V9.93896Z" fill="white"/>
<path d="M72.1168 19.3304C71.9729 20.162 71.603 20.8517 71.0481 21.3994C70.3288 22.1093 69.3423 22.4744 68.1092 22.4744C66.7939 22.4744 65.7252 21.9673 64.9442 20.9734C64.1427 19.9795 63.7522 18.6407 63.7522 16.9977C63.7522 15.4359 64.1427 14.1783 64.9442 13.2452C65.7457 12.3121 66.7939 11.8456 68.1092 11.8456C69.3423 11.8456 70.3288 12.1904 71.0481 12.8801C71.6236 13.4278 71.9935 14.1377 72.1168 14.9896H74.9941C74.8708 14.0566 74.5625 13.2046 74.0898 12.4541C73.4938 11.5211 72.6717 10.7909 71.6441 10.2635C70.596 9.75637 69.4245 9.49268 68.1092 9.49268C66.6705 9.49268 65.4169 9.79694 64.3071 10.4055C63.2178 11.014 62.3546 11.9065 61.7381 13.0424C61.1215 14.1986 60.8132 15.517 60.8132 17.018C60.8132 18.6205 61.1215 19.9998 61.7381 21.1762C62.3546 22.3324 63.2178 23.2452 64.3071 23.8537C65.3963 24.4825 66.65 24.7868 68.0681 24.7868C69.3834 24.7868 70.5754 24.5434 71.603 24.0363C72.6512 23.5292 73.4732 22.799 74.0692 21.8456C74.5419 21.0951 74.8502 20.2432 74.9735 19.2898H72.1168V19.3304Z" fill="white"/>
<path d="M52.6542 11.8661V9.93912H48.6055V6.85596H47.5984L46.2009 9.18861C45.9132 9.67543 45.4405 10.0405 44.9061 10.2231L43.262 10.7708V11.8661H44.4334H45.7488V20.6491C45.7488 21.7038 45.9132 22.5152 46.2214 23.0831C46.5503 23.6511 47.0435 24.0162 47.7423 24.219C48.4411 24.4219 49.407 24.503 50.6401 24.503C51.2361 24.503 51.9143 24.4827 52.6542 24.4219V22.0689C51.9143 22.1298 51.2772 22.1501 50.7634 22.1501C49.9414 22.1501 49.3865 22.0284 49.0782 21.785C48.7699 21.5416 48.6055 21.0547 48.6055 20.3042V11.8661H52.6542Z" fill="white"/>
<path d="M87.6131 21.156C86.9143 19.9795 86.5649 18.6205 86.5649 17.0992C86.5649 15.5982 86.9143 14.2594 87.6131 13.1235C88.3119 11.9673 89.2572 11.0951 90.4493 10.446C91.6413 9.81722 92.9155 9.49268 94.313 9.49268C95.69 9.49268 96.9848 9.81722 98.1563 10.446C99.3483 11.0748 100.294 11.9673 100.992 13.1235C101.691 14.2797 102.041 15.5982 102.041 17.0992C102.041 18.6205 101.691 19.9795 100.992 21.156C100.294 22.3324 99.3483 23.2249 98.1768 23.874C97.0053 24.5028 95.7106 24.8274 94.313 24.8274C92.9155 24.8274 91.6207 24.5028 90.4493 23.874C89.2572 23.2249 88.3119 22.3324 87.6131 21.156ZM99.1427 17.0992C99.1427 15.4562 98.7112 14.1783 97.8274 13.2452C96.9437 12.3121 95.7722 11.8456 94.2925 11.8456C92.8333 11.8456 91.6618 12.3121 90.7986 13.2452C89.9149 14.1783 89.4833 15.4562 89.4833 17.0992C89.4833 18.7827 89.9149 20.1012 90.7986 21.0343C91.6824 21.9876 92.8538 22.4541 94.2925 22.4541C95.7722 22.4541 96.9437 21.9876 97.8274 21.0343C98.7112 20.1012 99.1427 18.7827 99.1427 17.0992Z" fill="white"/>
<path d="M56.9291 8.49889C57.8485 8.49889 58.5938 7.7633 58.5938 6.85589C58.5938 5.94849 57.8485 5.21289 56.9291 5.21289C56.0097 5.21289 55.2644 5.94849 55.2644 6.85589C55.2644 7.7633 56.0097 8.49889 56.9291 8.49889Z" fill="white"/>
<path d="M103.89 11.0139C103.849 10.9733 103.787 10.953 103.685 10.953C103.787 10.953 103.849 10.9125 103.911 10.8516C103.972 10.7908 103.993 10.7299 103.993 10.6285C103.993 10.5271 103.952 10.4459 103.89 10.4054C103.808 10.3445 103.726 10.3242 103.582 10.3242H102.965V11.5818H103.191V11.1153H103.5C103.561 11.1153 103.602 11.1153 103.623 11.1356C103.644 11.1356 103.664 11.1559 103.685 11.1761C103.705 11.1964 103.705 11.237 103.726 11.2776L103.767 11.5818H104.013L103.952 11.2167C103.972 11.1153 103.931 11.0544 103.89 11.0139ZM103.541 10.9327H103.212V10.5068H103.541C103.602 10.5068 103.664 10.5271 103.705 10.5676C103.746 10.6082 103.767 10.6488 103.767 10.7096C103.767 10.7705 103.746 10.8313 103.705 10.8719C103.685 10.9125 103.623 10.9327 103.541 10.9327Z" fill="white"/>
<path d="M103.52 9.49268C102.698 9.49268 102.041 10.1418 102.041 10.9531C102.041 11.7645 102.698 12.4136 103.52 12.4136C104.342 12.4136 105 11.7645 105 10.9531C105 10.1418 104.342 9.49268 103.52 9.49268ZM103.52 12.1499C102.842 12.1499 102.287 11.6022 102.287 10.9328C102.287 10.2635 102.842 9.7158 103.52 9.7158C104.198 9.7158 104.753 10.2635 104.753 10.9328C104.753 11.6225 104.198 12.1499 103.52 12.1499Z" fill="white"/>
<path d="M85.3319 11.8661V9.93912H81.2832V6.85596H80.2762L78.8786 9.18861C78.5909 9.67543 78.1182 10.0405 77.5839 10.2231L75.9397 10.7708V11.8661H77.1112H78.4265V20.6491C78.4265 21.7038 78.5909 22.5152 78.8992 23.0831C79.228 23.6511 79.7213 24.0162 80.42 24.219C81.1188 24.4219 82.0847 24.503 83.3179 24.503C83.9139 24.503 84.5921 24.4827 85.3319 24.4219V22.0689C84.5921 22.1298 83.955 22.1501 83.4412 22.1501C82.6191 22.1501 82.0642 22.0284 81.7559 21.785C81.4476 21.5416 81.2832 21.0547 81.2832 20.3042V11.8661H85.3319Z" fill="white"/>
<path d="M27.9096 0H2.48679C1.10981 0 0 1.09533 0 2.45436V27.5456C0 28.9047 1.10981 30 2.48679 30H27.9096C29.2866 30 30.3964 28.9047 30.3964 27.5456V2.45436C30.4169 1.09533 29.2866 0 27.9096 0ZM24.0664 10.6897H17.7363V24.4422H12.66V20.4057V15.5781C12.66 15.2536 12.8039 14.929 13.0299 14.7059L16.3183 11.4402C16.4005 11.359 16.4416 11.2373 16.4416 11.1359C16.4416 11.0142 16.4005 10.9128 16.3183 10.8316C16.2361 10.7505 16.1333 10.7099 16.01 10.7099H6.33001V6.93712H24.0664V10.6897Z" fill="white"/>
</svg>
